<?xml version="1.0" encoding="utf-8"?>
<svg version="1.1" xmlns:xlink="http://www.w3.org/1999/xlink" width="40px" height="48px" xmlns="http://www.w3.org/2000/svg">
  <defs>
    <pattern id="BGPattern" patternUnits="userSpaceOnUse" alignment="0 0" imageRepeat="None" />
    <mask fill="rgba(255, 165, 0, 1)" id="Clip51">
      <path d="M 39.734375 34.703125  C 39.911458333333336 36.276041666666664  40 37.947916666666664  40 39.71875  C 40 41.989583333333336  39.348958333333336 43.9375  38.046875 45.5625  C 36.74479166666667 47.1875  35.177083333333336 48  33.34375 48  L 6.65625 48  C 4.822916666666667 48  3.255208333333334 47.1875  1.9531250000000002 45.5625  C 0.6510416666666669 43.9375  0 41.989583333333336  0 39.71875  C 0 37.947916666666664  0.08854166666666688 36.276041666666664  0.2656250000000002 34.703125  C 0.4427083333333336 33.13020833333333  0.7708333333333335 31.546875  1.2500000000000002 29.953125  C 1.7291666666666672 28.359375  2.338541666666667 26.994791666666668  3.078125 25.859375000000004  C 3.817708333333334 24.72395833333333  4.796875 23.796875  6.015625 23.078125  C 7.234375 22.359375  8.635416666666668 22  10.21875 22  C 12.947916666666668 24.666666666666664  16.208333333333336 26.000000000000004  20 26.000000000000004  C 23.79166666666667 26.000000000000004  27.052083333333336 24.666666666666664  29.78125 22  C 31.364583333333336 22  32.765625 22.359375  33.984375 23.078125  C 35.203125 23.796875  36.18229166666667 24.72395833333333  36.921875 25.859375000000004  C 37.661458333333336 26.994791666666668  38.270833333333336 28.359375  38.75 29.953125  C 39.22916666666667 31.546875  39.55729166666667 33.13020833333333  39.734375 34.703125  Z M 28.484375 3.515625  C 30.828125 5.859375  32 8.687500000000002  32 12  C 32 15.312499999999998  30.828125 18.140625  28.484375 20.484375  C 26.140625 22.828125  23.3125 24  20 24  C 16.6875 24  13.859375 22.828125  11.515625 20.484375  C 9.171875 18.140625  8 15.312499999999998  8 12  C 8 8.687500000000002  9.171875 5.859375  11.515625 3.515625  C 13.859375 1.171875  16.6875 0  20 0  C 23.3125 0  26.140625 1.171875  28.484375 3.515625  Z " fill-rule="evenodd" />
    </mask>
  </defs>
  <g transform="matrix(1 0 0 1 -26 -519 )">
    <path d="M 39.734375 34.703125  C 39.911458333333336 36.276041666666664  40 37.947916666666664  40 39.71875  C 40 41.989583333333336  39.348958333333336 43.9375  38.046875 45.5625  C 36.74479166666667 47.1875  35.177083333333336 48  33.34375 48  L 6.65625 48  C 4.822916666666667 48  3.255208333333334 47.1875  1.9531250000000002 45.5625  C 0.6510416666666669 43.9375  0 41.989583333333336  0 39.71875  C 0 37.947916666666664  0.08854166666666688 36.276041666666664  0.2656250000000002 34.703125  C 0.4427083333333336 33.13020833333333  0.7708333333333335 31.546875  1.2500000000000002 29.953125  C 1.7291666666666672 28.359375  2.338541666666667 26.994791666666668  3.078125 25.859375000000004  C 3.817708333333334 24.72395833333333  4.796875 23.796875  6.015625 23.078125  C 7.234375 22.359375  8.635416666666668 22  10.21875 22  C 12.947916666666668 24.666666666666664  16.208333333333336 26.000000000000004  20 26.000000000000004  C 23.79166666666667 26.000000000000004  27.052083333333336 24.666666666666664  29.78125 22  C 31.364583333333336 22  32.765625 22.359375  33.984375 23.078125  C 35.203125 23.796875  36.18229166666667 24.72395833333333  36.921875 25.859375000000004  C 37.661458333333336 26.994791666666668  38.270833333333336 28.359375  38.75 29.953125  C 39.22916666666667 31.546875  39.55729166666667 33.13020833333333  39.734375 34.703125  Z M 28.484375 3.515625  C 30.828125 5.859375  32 8.687500000000002  32 12  C 32 15.312499999999998  30.828125 18.140625  28.484375 20.484375  C 26.140625 22.828125  23.3125 24  20 24  C 16.6875 24  13.859375 22.828125  11.515625 20.484375  C 9.171875 18.140625  8 15.312499999999998  8 12  C 8 8.687500000000002  9.171875 5.859375  11.515625 3.515625  C 13.859375 1.171875  16.6875 0  20 0  C 23.3125 0  26.140625 1.171875  28.484375 3.515625  Z " fill-rule="nonzero" fill="rgba(255, 165, 0, 1)" stroke="none" transform="matrix(1 0 0 1 26 519 )" class="fill" />
    <path d="M 39.734375 34.703125  C 39.911458333333336 36.276041666666664  40 37.947916666666664  40 39.71875  C 40 41.989583333333336  39.348958333333336 43.9375  38.046875 45.5625  C 36.74479166666667 47.1875  35.177083333333336 48  33.34375 48  L 6.65625 48  C 4.822916666666667 48  3.255208333333334 47.1875  1.9531250000000002 45.5625  C 0.6510416666666669 43.9375  0 41.989583333333336  0 39.71875  C 0 37.947916666666664  0.08854166666666688 36.276041666666664  0.2656250000000002 34.703125  C 0.4427083333333336 33.13020833333333  0.7708333333333335 31.546875  1.2500000000000002 29.953125  C 1.7291666666666672 28.359375  2.338541666666667 26.994791666666668  3.078125 25.859375000000004  C 3.817708333333334 24.72395833333333  4.796875 23.796875  6.015625 23.078125  C 7.234375 22.359375  8.635416666666668 22  10.21875 22  C 12.947916666666668 24.666666666666664  16.208333333333336 26.000000000000004  20 26.000000000000004  C 23.79166666666667 26.000000000000004  27.052083333333336 24.666666666666664  29.78125 22  C 31.364583333333336 22  32.765625 22.359375  33.984375 23.078125  C 35.203125 23.796875  36.18229166666667 24.72395833333333  36.921875 25.859375000000004  C 37.661458333333336 26.994791666666668  38.270833333333336 28.359375  38.75 29.953125  C 39.22916666666667 31.546875  39.55729166666667 33.13020833333333  39.734375 34.703125  Z " stroke-width="0" stroke-dasharray="0" stroke="rgba(121, 121, 121, 0)" fill="none" transform="matrix(1 0 0 1 26 519 )" class="stroke" mask="url(#Clip51)" />
    <path d="M 28.484375 3.515625  C 30.828125 5.859375  32 8.687500000000002  32 12  C 32 15.312499999999998  30.828125 18.140625  28.484375 20.484375  C 26.140625 22.828125  23.3125 24  20 24  C 16.6875 24  13.859375 22.828125  11.515625 20.484375  C 9.171875 18.140625  8 15.312499999999998  8 12  C 8 8.687500000000002  9.171875 5.859375  11.515625 3.515625  C 13.859375 1.171875  16.6875 0  20 0  C 23.3125 0  26.140625 1.171875  28.484375 3.515625  Z " stroke-width="0" stroke-dasharray="0" stroke="rgba(121, 121, 121, 0)" fill="none" transform="matrix(1 0 0 1 26 519 )" class="stroke" mask="url(#Clip51)" />
  </g>
</svg>