<?xml version="1.0" encoding="utf-8"?>
<svg version="1.1" xmlns:xlink="http://www.w3.org/1999/xlink" width="33px" height="33px" xmlns="http://www.w3.org/2000/svg">
  <defs>
    <pattern id="BGPattern" patternUnits="userSpaceOnUse" alignment="0 0" imageRepeat="None" />
    <mask fill="white" id="Clip4">
      <path d="M 20.23828125 20.23828125  C 21.976862980769234 18.499699519230766  22.846153846153847 16.40745192307692  22.846153846153847 13.961538461538463  C 22.846153846153847 11.515624999999998  21.976862980769234 9.423377403846152  20.23828125 7.6847956730769225  C 18.49969951923077 5.94621394230769  16.407451923076923 5.0769230769230775  13.961538461538462 5.0769230769230775  C 11.515625000000002 5.0769230769230775  9.423377403846155 5.94621394230769  7.6847956730769225 7.6847956730769225  C 5.9462139423076925 9.423377403846152  5.0769230769230775 11.515624999999998  5.0769230769230775 13.961538461538463  C 5.0769230769230775 16.40745192307692  5.9462139423076925 18.499699519230766  7.6847956730769225 20.23828125  C 9.423377403846155 21.976862980769226  11.515625000000002 22.846153846153847  13.961538461538462 22.846153846153847  C 16.407451923076923 22.846153846153847  18.49969951923077 21.976862980769226  20.23828125 20.23828125  Z M 32.26622596153846 28.67668269230769  C 32.75540865384615 29.165865384615387  33 29.76081730769231  33 30.461538461538463  C 33 31.149038461538463  32.74879807692308 31.743990384615387  32.24639423076923 32.24639423076923  C 31.743990384615387 32.74879807692307  31.149038461538463 33  30.461538461538463 33  C 29.747596153846153 33  29.15264423076923 32.74879807692307  28.67668269230769 32.24639423076923  L 21.874399038461537 25.46394230769231  C 19.5078125 27.103365384615387  16.87019230769231 27.923076923076923  13.961538461538462 27.923076923076923  C 12.070913461538463 27.923076923076923  10.262920673076923 27.556189903846153  8.537560096153845 26.822415865384617  C 6.812199519230769 26.088641826923077  5.324819711538462 25.097055288461537  4.075420673076923 23.84765625  C 2.8260216346153846 22.598257211538463  1.8344350961538465 21.110877403846153  1.1006610576923077 19.385516826923077  C 0.3668870192307692 17.66015625  0 15.852163461538458  0 13.961538461538463  C 0 12.070913461538456  0.3668870192307692 10.262920673076923  1.1006610576923077 8.537560096153845  C 1.8344350961538465 6.812199519230768  2.8260216346153846 5.3248197115384635  4.075420673076923 4.0754206730769225  C 5.324819711538462 2.826021634615386  6.812199519230769 1.8344350961538456  8.537560096153845 1.1006610576923088  C 10.262920673076923 0.3668870192307684  12.070913461538463 0  13.961538461538462 0  C 15.852163461538462 0  17.66015625 0.3668870192307684  19.385516826923077 1.1006610576923088  C 21.110877403846153 1.8344350961538456  22.598257211538463 2.826021634615386  23.84765625 4.0754206730769225  C 25.097055288461537 5.3248197115384635  26.088641826923077 6.812199519230768  26.822415865384613 8.537560096153845  C 27.556189903846153 10.262920673076923  27.923076923076923 12.070913461538456  27.923076923076923 13.961538461538463  C 27.923076923076923 16.870192307692307  27.103365384615387 19.507812499999996  25.46394230769231 21.874399038461537  L 32.26622596153846 28.67668269230769  Z " fill-rule="evenodd" />
    </mask>
  </defs>
  <g transform="matrix(1 0 0 1 -284 499 )">
    <path d="M 20.23828125 20.23828125  C 21.976862980769234 18.499699519230766  22.846153846153847 16.40745192307692  22.846153846153847 13.961538461538463  C 22.846153846153847 11.515624999999998  21.976862980769234 9.423377403846152  20.23828125 7.6847956730769225  C 18.49969951923077 5.94621394230769  16.407451923076923 5.0769230769230775  13.961538461538462 5.0769230769230775  C 11.515625000000002 5.0769230769230775  9.423377403846155 5.94621394230769  7.6847956730769225 7.6847956730769225  C 5.9462139423076925 9.423377403846152  5.0769230769230775 11.515624999999998  5.0769230769230775 13.961538461538463  C 5.0769230769230775 16.40745192307692  5.9462139423076925 18.499699519230766  7.6847956730769225 20.23828125  C 9.423377403846155 21.976862980769226  11.515625000000002 22.846153846153847  13.961538461538462 22.846153846153847  C 16.407451923076923 22.846153846153847  18.49969951923077 21.976862980769226  20.23828125 20.23828125  Z M 32.26622596153846 28.67668269230769  C 32.75540865384615 29.165865384615387  33 29.76081730769231  33 30.461538461538463  C 33 31.149038461538463  32.74879807692308 31.743990384615387  32.24639423076923 32.24639423076923  C 31.743990384615387 32.74879807692307  31.149038461538463 33  30.461538461538463 33  C 29.747596153846153 33  29.15264423076923 32.74879807692307  28.67668269230769 32.24639423076923  L 21.874399038461537 25.46394230769231  C 19.5078125 27.103365384615387  16.87019230769231 27.923076923076923  13.961538461538462 27.923076923076923  C 12.070913461538463 27.923076923076923  10.262920673076923 27.556189903846153  8.537560096153845 26.822415865384617  C 6.812199519230769 26.088641826923077  5.324819711538462 25.097055288461537  4.075420673076923 23.84765625  C 2.8260216346153846 22.598257211538463  1.8344350961538465 21.110877403846153  1.1006610576923077 19.385516826923077  C 0.3668870192307692 17.66015625  0 15.852163461538458  0 13.961538461538463  C 0 12.070913461538456  0.3668870192307692 10.262920673076923  1.1006610576923077 8.537560096153845  C 1.8344350961538465 6.812199519230768  2.8260216346153846 5.3248197115384635  4.075420673076923 4.0754206730769225  C 5.324819711538462 2.826021634615386  6.812199519230769 1.8344350961538456  8.537560096153845 1.1006610576923088  C 10.262920673076923 0.3668870192307684  12.070913461538463 0  13.961538461538462 0  C 15.852163461538462 0  17.66015625 0.3668870192307684  19.385516826923077 1.1006610576923088  C 21.110877403846153 1.8344350961538456  22.598257211538463 2.826021634615386  23.84765625 4.0754206730769225  C 25.097055288461537 5.3248197115384635  26.088641826923077 6.812199519230768  26.822415865384613 8.537560096153845  C 27.556189903846153 10.262920673076923  27.923076923076923 12.070913461538456  27.923076923076923 13.961538461538463  C 27.923076923076923 16.870192307692307  27.103365384615387 19.507812499999996  25.46394230769231 21.874399038461537  L 32.26622596153846 28.67668269230769  Z " fill-rule="nonzero" fill="rgba(255, 165, 0, 1)" stroke="none" transform="matrix(1 0 0 1 284 -499 )" class="fill" />
    <path d="M 20.23828125 20.23828125  C 21.976862980769234 18.499699519230766  22.846153846153847 16.40745192307692  22.846153846153847 13.961538461538463  C 22.846153846153847 11.515624999999998  21.976862980769234 9.423377403846152  20.23828125 7.6847956730769225  C 18.49969951923077 5.94621394230769  16.407451923076923 5.0769230769230775  13.961538461538462 5.0769230769230775  C 11.515625000000002 5.0769230769230775  9.423377403846155 5.94621394230769  7.6847956730769225 7.6847956730769225  C 5.9462139423076925 9.423377403846152  5.0769230769230775 11.515624999999998  5.0769230769230775 13.961538461538463  C 5.0769230769230775 16.40745192307692  5.9462139423076925 18.499699519230766  7.6847956730769225 20.23828125  C 9.423377403846155 21.976862980769226  11.515625000000002 22.846153846153847  13.961538461538462 22.846153846153847  C 16.407451923076923 22.846153846153847  18.49969951923077 21.976862980769226  20.23828125 20.23828125  Z " stroke-width="0" stroke-dasharray="0" stroke="rgba(121, 121, 121, 0)" fill="none" transform="matrix(1 0 0 1 284 -499 )" class="stroke" mask="url(#Clip4)" />
    <path d="M 32.26622596153846 28.67668269230769  C 32.75540865384615 29.165865384615387  33 29.76081730769231  33 30.461538461538463  C 33 31.149038461538463  32.74879807692308 31.743990384615387  32.24639423076923 32.24639423076923  C 31.743990384615387 32.74879807692307  31.149038461538463 33  30.461538461538463 33  C 29.747596153846153 33  29.15264423076923 32.74879807692307  28.67668269230769 32.24639423076923  L 21.874399038461537 25.46394230769231  C 19.5078125 27.103365384615387  16.87019230769231 27.923076923076923  13.961538461538462 27.923076923076923  C 12.070913461538463 27.923076923076923  10.262920673076923 27.556189903846153  8.537560096153845 26.822415865384617  C 6.812199519230769 26.088641826923077  5.324819711538462 25.097055288461537  4.075420673076923 23.84765625  C 2.8260216346153846 22.598257211538463  1.8344350961538465 21.110877403846153  1.1006610576923077 19.385516826923077  C 0.3668870192307692 17.66015625  0 15.852163461538458  0 13.961538461538463  C 0 12.070913461538456  0.3668870192307692 10.262920673076923  1.1006610576923077 8.537560096153845  C 1.8344350961538465 6.812199519230768  2.8260216346153846 5.3248197115384635  4.075420673076923 4.0754206730769225  C 5.324819711538462 2.826021634615386  6.812199519230769 1.8344350961538456  8.537560096153845 1.1006610576923088  C 10.262920673076923 0.3668870192307684  12.070913461538463 0  13.961538461538462 0  C 15.852163461538462 0  17.66015625 0.3668870192307684  19.385516826923077 1.1006610576923088  C 21.110877403846153 1.8344350961538456  22.598257211538463 2.826021634615386  23.84765625 4.0754206730769225  C 25.097055288461537 5.3248197115384635  26.088641826923077 6.812199519230768  26.822415865384613 8.537560096153845  C 27.556189903846153 10.262920673076923  27.923076923076923 12.070913461538456  27.923076923076923 13.961538461538463  C 27.923076923076923 16.870192307692307  27.103365384615387 19.507812499999996  25.46394230769231 21.874399038461537  L 32.26622596153846 28.67668269230769  Z " stroke-width="0" stroke-dasharray="0" stroke="rgba(121, 121, 121, 0)" fill="none" transform="matrix(1 0 0 1 284 -499 )" class="stroke" mask="url(#Clip4)" />
  </g>
</svg>